# xmcd
#
# Track frame offsets: 
#        150
#        27649
#        45069
#        66362
#        92167
#        117561
#        131111
#        153287
#        171378
#        194671
#
# Disc length: 3180 seconds
#
# Revision: 1
# Processed by: cddbd v1.5.2PL0 Copyright (c) Steve Scherf et al.
# Submitted via: ExactAudioCopy v1.3
#
DISCID=900c6a0a
DTITLE=Jane Lee Hooker - Spiritus
DYEAR=2017
DGENRE=Blues
TTITLE0=How Ya Doin?
TTITLE1=Gimme That
TTITLE2=Mama Said
TTITLE3=Be My Baby
TTITLE4=Later On
TTITLE5=Black Rat
TTITLE6=Ends Meet
TTITLE7=How Bright The Moon
TTITLE8=Turn On Your Love Light
TTITLE9=The Breeze
EXTD=
EXTT0=
EXTT1=
EXTT2=
EXTT3=
EXTT4=
EXTT5=
EXTT6=
EXTT7=
EXTT8=
EXTT9=
PLAYORDER=
